<svg width="30" height="31" viewBox="0 0 30 31" fill="none" xmlns="http://www.w3.org/2000/svg">
<path fill-rule="evenodd" clip-rule="evenodd" d="M26.2625 13.2138L26.2663 17.7425C26.2338 18.1742 26.1925 18.605 26.1425 19.035C26.0982 19.3895 25.9357 19.7186 25.6812 19.9692C25.4267 20.2199 25.0951 20.3774 24.74 20.4163C22.44 20.6738 20.06 20.6738 17.76 20.4163C17.4049 20.3774 17.0733 20.2199 16.8188 19.9692C16.5643 19.7186 16.4018 19.3895 16.3575 19.035C16.0823 16.6864 16.0823 14.3136 16.3575 11.965C16.4018 11.6106 16.5643 11.2814 16.8188 11.0308C17.0733 10.7801 17.4049 10.6226 17.76 10.5838C20.0796 10.3272 22.4204 10.3272 24.74 10.5838C25.4738 10.665 26.0588 11.2463 26.1425 11.965C26.1909 12.3808 26.2309 12.7975 26.2625 13.215M21.25 13.625C20.7527 13.625 20.2758 13.8225 19.9242 14.1742C19.5726 14.5258 19.375 15.0027 19.375 15.5C19.375 15.9973 19.5726 16.4742 19.9242 16.8258C20.2758 17.1775 20.7527 17.375 21.25 17.375C21.7473 17.375 22.2242 17.1775 22.5758 16.8258C22.9275 16.4742 23.125 15.9973 23.125 15.5C23.125 15.0027 22.9275 14.5258 22.5758 14.1742C22.2242 13.8225 21.7473 13.625 21.25 13.625Z" fill="#B3FFFF"/>
<path d="M25.505 8.05003C25.6988 8.38628 25.3338 8.76253 24.9475 8.72003C22.49 8.44916 20.0101 8.44916 17.5525 8.72003C16.7761 8.80579 16.0515 9.15157 15.4964 9.70119C14.9413 10.2508 14.5884 10.972 14.495 11.7475C14.2052 14.2408 14.2052 16.7593 14.495 19.2525C14.5884 20.0281 14.9413 20.7492 15.4964 21.2989C16.0515 21.8485 16.7761 22.1943 17.5525 22.28C20.0101 22.5509 22.49 22.5509 24.9475 22.28C25.3363 22.2363 25.705 22.6163 25.5088 22.955C25.018 23.8015 24.3342 24.5201 23.5131 25.0523C22.6921 25.5845 21.7569 25.9152 20.7838 26.0175L19.9688 26.1025C15.8302 26.5373 11.6559 26.5084 7.52376 26.0163L6.98376 25.9525C5.90053 25.8238 4.89095 25.3383 4.11419 24.5724C3.33744 23.8065 2.83769 22.8038 2.69376 21.7225C2.14212 17.5925 2.14212 13.4075 2.69376 9.27752C2.83769 8.19622 3.33744 7.19358 4.11419 6.42768C4.89095 5.66179 5.90053 5.17622 6.98376 5.04753L7.52376 4.98378C11.6559 4.49168 15.8302 4.46276 19.9688 4.89753L20.7838 4.98378C21.7568 5.08608 22.6919 5.41723 23.5125 5.95015C24.333 6.48308 25.0158 7.20265 25.505 8.05003Z" fill="#B3FFFF"/>
</svg>
